# xmcd
#
# Track frame offsets:
#	183
#	17363
#	47723
#
# Disc length: 1072 seconds
#
# Revision: 5
# Processed by: cddbd v1.5.1PL0 Copyright (c) Steve Scherf et al.
# Submitted via: MusicWizard 7.2.0
#
DISCID=17042e03
DTITLE=Dina Carroll - The Perfect Year
DYEAR=1993
DGENRE=Pop
TTITLE0=The Perfect Year
TTITLE1=Here (West End Mix)
TTITLE2=Here (Nigel Lowis Mix)
EXTD=
EXTT0=
EXTT1=
EXTT2=
PLAYORDER=
